HIERARCHY
ROOT Hips
{
	OFFSET 0.00000 0.00000 0.00000
	CHANNELS 6 Xposition Yposition Zposition Zrotation Yrotation Xrotation 
	JOINT LHipJoint
	{
		OFFSET 0 0 0
		CHANNELS 3 Zrotation Yrotation Xrotation
		JOINT LeftHip
		{
			OFFSET 1.44960 -1.75505 0.85172
			CHANNELS 3 Zrotation Yrotation Xrotation
			JOINT LeftKnee
			{
				OFFSET 2.40573 -6.60971 0.00000
				CHANNELS 3 Zrotation Yrotation Xrotation
				JOINT LeftAnkle
				{
					OFFSET 2.58773 -7.10974 0.00000
					CHANNELS 3 Zrotation Yrotation Xrotation
					JOINT LeftToe
					{
						OFFSET 0.18252 -0.50147 1.77316
						CHANNELS 3 Zrotation Yrotation Xrotation
						End Site
						{
							OFFSET 0.00000 -0.00000 0.92990
						}
					}
				}
			}
		}
	}
	JOINT RHipJoint
	{
		OFFSET 0 0 0
		CHANNELS 3 Zrotation Yrotation Xrotation
		JOINT RightHip
		{
			OFFSET -1.40744 -1.75505 0.85172
			CHANNELS 3 Zrotation Yrotation Xrotation
			JOINT RightKnee
			{
				OFFSET -2.43714 -6.69600 0.00000
				CHANNELS 3 Zrotation Yrotation Xrotation
				JOINT RightAnkle
				{
					OFFSET -2.51650 -6.91404 0.00000
					CHANNELS 3 Zrotation Yrotation Xrotation
					JOINT RightToe
					{
						OFFSET -0.25383 -0.69740 1.96384
						CHANNELS 3 Zrotation Yrotation Xrotation
						End Site
						{
							OFFSET -0.00000 -0.00000 1.04244
						}
					}
				}
			}
		}
	}
	JOINT lowerback
	{
		OFFSET 0 0 0
		CHANNELS 3 Zrotation Yrotation Xrotation
		JOINT Chest
		{
			OFFSET 0.00579 2.14458 -0.24367
			CHANNELS 3 Zrotation Yrotation Xrotation
			JOINT Chest2
			{
				OFFSET 0.05899 2.16316 -0.04515
				CHANNELS 3 Zrotation Yrotation Xrotation
				JOINT lowerneck
				{
					OFFSET 0 0 0
					CHANNELS 3 Zrotation Yrotation Xrotation
					JOINT Neck
					{
						OFFSET -0.01650 1.59577 0.24841
						CHANNELS 3 Zrotation Yrotation Xrotation
						JOINT Head
						{
							OFFSET -0.01016 1.63072 -0.17782
							CHANNELS 3 Zrotation Yrotation Xrotation
							End Site
							{
								OFFSET -0.00250 1.64111 -0.08717
							}
						}
					}
				}
				JOINT LeftCollar
				{
					OFFSET 0 0 0
					CHANNELS 3 Zrotation Yrotation Xrotation
					JOINT LeftShoulder
					{
						OFFSET 3.17745 0.95174 -0.45729
CHANNELS 3 Zrotation Xrotation Yrotation
						JOINT LeftElbow
						{
OFFSET 0 -4.934850 0.000000
CHANNELS 3 Zrotation Xrotation Yrotation
							JOINT LeftWrist
							{
OFFSET 0 -3.417190 -0.000000
CHANNELS 3 Zrotation Xrotation Yrotation
								JOINT lhand
								{
									OFFSET 0 0 0
CHANNELS 3 Zrotation Xrotation Yrotation
									JOINT LFingers
									{
OFFSET 0 -0.624100 -0.000000
CHANNELS 3 Zrotation Xrotation Yrotation
										End Site
										{
OFFSET 0 -0.503170 -0.000000
										}
									}
								}
								JOINT LThumb
								{
OFFSET 0 0.000000 0.000000
CHANNELS 3 Zrotation Xrotation Yrotation
									End Site
									{
OFFSET 0 -0.510850 0.510850
									}
								}
							}
						}
					}
				}
				JOINT RightCollar
				{
					OFFSET 0 0 0
					CHANNELS 3 Zrotation Yrotation Xrotation
					JOINT RightShoulder
					{
						OFFSET -2.87924 1.13038 -0.75204
CHANNELS 3 Zrotation Xrotation Yrotation
						JOINT RightElbow
						{
OFFSET 0 -5.220340 0.000000
CHANNELS 3 Zrotation Xrotation Yrotation
							JOINT RightWrist
							{
OFFSET 0 -3.418090 -0.000000
CHANNELS 3 Zrotation Xrotation Yrotation
								JOINT rhand
								{
									OFFSET 0 0 0
CHANNELS 3 Zrotation Xrotation Yrotation
									JOINT RFingers
									{
OFFSET 0 -0.775340 -0.000000
CHANNELS 3 Zrotation Xrotation Yrotation
										End Site
										{
OFFSET 0 -0.625100 -0.000000
										}
									}
								}
								JOINT RThumb
								{
OFFSET 0 0.000000 0.000000
CHANNELS 3 Zrotation Xrotation Yrotation
									End Site
									{
OFFSET 0 -0.634640 0.634640
									}
								}
							}
						}
					}
				}
			}
		}
	}
}
MOTION
Frames: 10
Frame Time: 0.008333333333333333
0.848900 17.490000 -32.707000 -1.396700 3.354000 3.210900 0.000000 0.000000 0.000000 -18.120700 -6.766800 -6.733100 1.886800 8.626300 24.633200 1.276200 -2.554900 -20.667000 0.034100 -1.192000 -3.277300 0.000000 0.000000 0.000000 20.608200 2.356100 -8.649500 -2.158900 -9.189500 26.389800 -1.395200 -3.514400 -23.821100 -0.365000 -3.880700 10.741200 0.188900 -1.282000 3.397000 1.620900 -1.643000 -1.981100 1.675400 -0.799700 -3.903600 -3.404300 -2.534900 -14.062900 3.355600 -3.090000 6.300700 1.347400 -1.406400 4.265500 0.000000 0.000000 0.000000 -2.394400 2.936700 -22.678500 16.557800 -26.271200 3.889600 5.358400 8.583600 -42.767200 0.000000 0.000000 0.000000 -7.125000 0.000000 0.000000 -44.332700 67.907600 26.345300 0.000000 0.000000 0.000000 -3.783500 3.447900 12.128500 -12.583400 -20.673800 -2.304100 -17.457400 -16.827900 -17.917100 0.000000 0.000000 0.000000 7.125000 0.000000 -0.000000 6.933500 11.362000 5.472900
0.855281 17.495579 -32.707599 -1.467262 3.619601 3.245270 0.000000 0.000000 0.000000 -18.032303 -6.954057 -6.808368 1.899324 8.653150 24.716150 1.266782 -2.770419 -20.543087 0.027636 -1.025188 -2.818557 0.000000 0.000000 0.000000 20.676004 1.946254 -8.602132 -2.105945 -9.083378 26.056558 -1.359775 -3.651554 -23.610635 -0.300085 -3.521051 9.733134 -0.556543 -0.986538 2.563890 2.140709 -1.278051 -1.586130 2.580535 -0.602995 -3.006968 -3.443076 -2.771745 -13.779905 2.680421 -3.333993 5.875682 1.130677 -1.570489 4.085024 0.000000 0.000000 0.000000 -3.125805 2.129758 -23.086365 16.189181 -25.776412 3.727857 5.178614 8.781892 -41.657041 0.000000 0.000000 0.000000 -7.125000 0.000000 0.000000 -42.567662 67.070804 24.375250 0.000000 0.000000 0.000000 -4.436720 3.108906 11.976344 -12.830662 -21.038494 -2.392189 -17.647915 -16.890708 -17.015565 0.000000 0.000000 0.000000 7.125000 0.000000 0.000000 6.771942 12.269232 5.215804
0.861008 17.496890 -32.710094 -1.740118 3.869784 3.234619 0.000000 0.000000 0.000000 -17.733266 -7.089142 -6.900160 1.921297 8.700121 24.861676 1.271540 -2.832844 -20.570566 0.030502 -1.122049 -3.084868 0.000000 0.000000 0.000000 20.982350 1.851725 -8.468259 -2.061144 -8.992215 25.770968 -1.342442 -3.722919 -23.508815 -0.348727 -3.793449 10.496460 -0.143593 -0.647896 2.552803 1.876798 -0.812398 -1.883780 2.056387 -0.378159 -3.339072 -2.625901 -3.019455 -12.676435 2.428121 -3.812040 5.566855 0.981720 -1.815651 4.169594 0.000000 0.000000 0.000000 -2.439395 2.797903 -24.283532 16.207637 -25.801354 3.735857 5.498879 8.910768 -41.861573 0.000000 0.000000 0.000000 -7.125000 0.000000 0.000000 -42.600429 67.315147 24.622369 0.000000 0.000000 0.000000 -3.613315 3.758206 10.662477 -12.902524 -21.144216 -2.418029 -17.219409 -16.512139 -17.508409 0.000000 0.000000 0.000000 7.125000 0.000000 0.000000 7.074155 11.809195 5.520158
0.873625 17.498951 -32.709765 -1.729756 3.979609 3.319015 0.000000 0.000000 0.000000 -17.805530 -7.308674 -6.989514 1.938281 8.736307 24.973926 1.272202 -2.736753 -20.595606 0.042077 -1.322665 -3.637153 0.000000 0.000000 0.000000 20.933712 1.904405 -8.410263 -2.027872 -8.923799 25.557220 -1.331485 -4.002150 -23.566850 -0.316342 -3.615460 9.997265 -0.247768 -0.687216 2.234019 2.075989 -0.869948 -1.628775 2.314885 -0.406677 -2.890174 -2.684752 -2.854431 -13.700120 2.042874 -3.530140 6.367143 0.795909 -1.685925 4.204285 0.000000 0.000000 0.000000 -2.809359 2.295246 -23.685593 16.024175 -25.553371 3.656362 5.158797 8.916508 -40.837749 0.000000 0.000000 0.000000 -7.125000 0.000000 0.000000 -41.249377 66.470772 22.972451 0.000000 0.000000 0.000000 -3.994880 3.048453 11.189894 -12.821056 -21.024411 -2.388710 -17.099534 -16.658424 -17.479687 0.000000 0.000000 0.000000 7.125000 0.000000 0.000000 7.152071 11.851780 5.575545
0.880834 17.500594 -32.706686 -1.979584 4.075879 3.321749 0.000000 0.000000 0.000000 -17.545846 -7.346367 -7.069355 1.957449 8.776864 25.099753 1.279525 -2.815737 -20.640841 0.037061 -1.242668 -3.416793 0.000000 0.000000 0.000000 21.152755 1.612060 -8.406865 -1.992302 -8.850021 25.327382 -1.316770 -3.883635 -23.386754 -0.315709 -3.611887 9.987147 -0.098168 -0.555514 1.857667 2.182397 -0.689587 -1.650353 2.327501 -0.319549 -2.708182 -2.495023 -2.917004 -12.856352 1.714162 -3.631585 5.805111 0.724811 -1.759777 4.194988 0.000000 0.000000 0.000000 -2.944884 2.400019 -23.534883 15.850112 -25.316904 3.581691 4.880190 9.164779 -41.289550 0.000000 0.000000 0.000000 -7.125000 0.000000 0.000000 -42.248711 66.717449 23.837646 0.000000 0.000000 0.000000 -4.034186 3.232017 11.364055 -12.910519 -21.155893 -2.420920 -17.041226 -17.106890 -17.684019 0.000000 0.000000 0.000000 7.125000 0.000000 0.000000 7.197768 11.648615 5.642986
0.881507 17.506712 -32.711733 -2.137467 4.217573 3.410023 0.000000 0.000000 0.000000 -17.340043 -7.472869 -7.242356 1.971042 8.805580 25.189016 1.280519 -2.924671 -20.627368 0.026895 -1.054671 -2.899351 0.000000 0.000000 0.000000 21.345980 1.541864 -8.413991 -1.959264 -8.780776 25.111912 -1.297973 -3.903488 -23.245067 -0.306464 -3.558709 9.838473 0.179471 -0.487651 2.042739 2.063577 -0.586838 -1.844705 2.048766 -0.272534 -3.020960 -2.244204 -2.913655 -13.207923 1.774017 -3.679115 6.770200 0.634651 -1.766526 4.239687 0.000000 0.000000 0.000000 -2.598023 2.645202 -23.734030 15.844490 -25.309243 3.579302 4.736701 8.791107 -41.503378 0.000000 0.000000 0.000000 -7.125000 0.000000 0.000000 -42.744221 66.827620 24.263557 0.000000 0.000000 0.000000 -3.672611 3.412544 11.421355 -13.005361 -21.295103 -2.455261 -17.154187 -16.905357 -17.045576 0.000000 0.000000 0.000000 7.125000 0.000000 0.000000 7.100292 12.292273 5.469658
0.882580 17.507757 -32.715118 -2.364347 4.214533 3.400126 0.000000 0.000000 0.000000 -17.096470 -7.523845 -7.279220 1.981577 8.827626 25.257559 1.277218 -2.831941 -20.618236 0.033445 -1.173342 -3.226002 0.000000 0.000000 0.000000 21.581955 1.613193 -8.326394 -1.935498 -8.730417 24.955582 -1.288192 -3.990010 -23.211658 -0.341893 -3.755743 10.390676 0.193463 -0.479784 1.998476 2.301015 -0.570335 -1.817291 2.284238 -0.262540 -2.966537 -2.485440 -2.894104 -13.309963 1.808499 -3.612991 6.895224 0.686582 -1.737771 4.298372 0.000000 0.000000 0.000000 -2.889307 2.451010 -23.366166 15.588588 -24.959612 3.470577 5.281649 9.557262 -41.659474 0.000000 0.000000 0.000000 -7.125000 0.000000 0.000000 -42.477155 67.102415 24.349052 0.000000 0.000000 0.000000 -3.923026 3.297955 11.565782 -13.078955 -21.402811 -2.482023 -16.021272 -16.514881 -17.416436 0.000000 0.000000 0.000000 7.125000 0.000000 0.000000 7.861961 12.032517 6.109407
0.887759 17.507495 -32.718979 -2.296662 4.498954 3.421061 0.000000 0.000000 0.000000 -17.159049 -7.766446 -7.298212 1.990081 8.845346 25.312782 1.282532 -2.999411 -20.629701 0.022246 -0.963313 -2.647795 0.000000 0.000000 0.000000 21.521296 1.472345 -8.323134 -1.921844 -8.701417 24.865608 -1.278806 -4.221302 -23.259757 -0.312113 -3.591126 9.929049 0.036114 -0.556697 1.814710 2.396475 -0.681658 -1.665618 2.471927 -0.315952 -2.699373 -2.396711 -2.805999 -13.921777 1.472021 -3.465787 7.300708 0.569196 -1.679864 4.511544 0.000000 0.000000 0.000000 -3.039743 2.255892 -23.147036 15.475526 -24.804469 3.422926 5.129148 9.561668 -40.691688 0.000000 0.000000 0.000000 -7.125000 0.000000 0.000000 -41.040058 66.356688 22.730595 0.000000 0.000000 0.000000 -4.087026 2.836519 11.474660 -13.102083 -21.436637 -2.490483 -14.503314 -15.802749 -17.323695 0.000000 0.000000 0.000000 7.125000 0.000000 0.000000 8.861941 12.280936 6.858586
0.891279 17.507861 -32.721713 -2.315808 4.526704 3.370546 0.000000 0.000000 0.000000 -17.163829 -7.696630 -7.300060 1.993842 8.853199 25.337202 1.273078 -2.966422 -20.557437 0.027916 -1.074034 -2.952641 0.000000 0.000000 0.000000 21.505441 1.367369 -8.288807 -1.918571 -8.694481 24.844060 -1.291304 -3.946059 -23.213715 -0.350103 -3.789460 10.486493 0.051780 -0.497625 2.091419 2.377907 -0.594398 -1.880184 2.446364 -0.269211 -3.080845 -2.234901 -2.721626 -13.976835 1.346009 -3.374225 7.843980 0.507209 -1.637746 4.682403 0.000000 0.000000 0.000000 -3.017832 2.868982 -22.994898 15.564298 -24.926118 3.460361 4.788737 9.417646 -40.743057 0.000000 0.000000 0.000000 -7.125000 0.000000 0.000000 -41.456535 66.293476 22.937526 0.000000 0.000000 0.000000 -4.031892 3.274589 11.984496 -13.372380 -21.830241 -2.590237 -12.850974 -15.406715 -16.626867 0.000000 0.000000 0.000000 7.125000 0.000000 0.000000 9.947795 13.135001 7.543103
0.890826 17.512878 -32.727082 -2.663685 4.661715 3.205687 0.000000 0.000000 0.000000 -16.777944 -7.785471 -7.189203 2.005176 8.876841 25.410775 1.287568 -3.050239 -20.662189 0.025457 -1.027460 -2.824403 0.000000 0.000000 0.000000 21.901530 1.322399 -8.161348 -1.918157 -8.693551 24.841208 -1.281159 -4.108277 -23.217709 -0.364906 -3.874011 10.723225 0.388335 -0.459876 2.305403 2.420849 -0.525240 -1.936996 2.301479 -0.240527 -3.265763 -2.382578 -2.629175 -13.945990 1.704678 -3.268090 8.141795 0.649496 -1.566713 4.777001 0.000000 0.000000 0.000000 -2.753058 3.316915 -23.349284 15.677940 -25.082048 3.508337 4.797302 9.114242 -41.258667 0.000000 0.000000 0.000000 -7.125000 0.000000 0.000000 -42.280237 66.670219 23.814309 0.000000 0.000000 0.000000 -3.921968 3.339691 12.055876 -13.482349 -21.989818 -2.631159 -10.885065 -14.852607 -16.415176 0.000000 0.000000 0.000000 7.125000 0.000000 0.000000 11.251641 13.508870 8.480522
